<svg width="259" height="260" xmlns="http://www.w3.org/2000/svg" xmlns:xlink="http://www.w3.org/1999/xlink" xml:space="preserve" overflow="hidden"><g transform="translate(-155 -114)"><path d="M64.4534 22.2892 64.4561 22.2996 64.4523 22.3015 64.4023 22.3015C51.6278 25.3706 39.1712 29.6379 27.1981 35.0467 24.9736 36.0525 22.6699 37.1501 20.2868 38.3396 19.1059 38.9289 17.9546 39.516 16.8328 40.1008L16.8328 42.2928 23.6137 38.8949 23.6137 98.6769 20.0578 100.455C18.9944 100.989 17.9109 101.545 16.8073 102.123L16.8073 104.337C21.2746 102.174 25.8192 100.164 30.4411 98.3067 32.0096 97.6768 33.5476 97.0784 35.0548 96.5115L35.424 96.3727 35.424 64.1849 39.7322 62.6759C43.2689 61.4331 46.796 60.293 50.3133 59.2554L52.3824 58.6445C53.0549 58.4527 52.4088 58.6462 54.4794 58.0787L54.4813 58.0778 62.5692 55.8718 62.5692 88.0369C63.3388 87.9438 64.1025 87.8091 64.8574 87.6335 70.4123 86.387 75.9056 85.3595 81.3376 84.5511 81.5417 84.5191 81.8083 84.4813 82.137 84.435L82.137 80.8624 81.9505 80.8907 74.5632 82.0315 74.5632 62.8006C74.5632 61.9355 74.4787 61.3756 74.3095 61.1205L74.2814 61.0941C73.7345 60.7201 72.5625 60.4566 70.7476 60.3263 70.1153 60.28 69.6313 60.2555 69.2998 60.2517 68.8234 60.2451 68.2686 60.2541 67.6354 60.2791L67.6354 60.28 67.6118 60.28 67.608 60.1913 65.3694 47.8097C67.4199 47.1326 69.1138 46.4554 70.4294 45.7651 71.4332 45.2673 72.3625 44.6312 73.1901 43.8755 73.6375 43.465 73.9973 42.9684 74.2482 42.4154 74.4865 41.8195 74.602 41.1817 74.5882 40.5401L74.5632 40.5401 74.5632 28.4408 74.5882 28.4408C74.5882 26.3821 74.1804 24.8191 73.37 23.7746 73.2383 23.6073 73.0936 23.4504 72.9375 23.3053 72.8075 23.1795 72.6707 23.0608 72.5276 22.9502L72.5164 22.9673 72.4157 22.8671C71.2635 22.0635 69.6677 21.699 67.6278 21.8113 67.2302 21.834 66.7272 21.8912 66.1191 21.9832 65.4289 22.088 64.8736 22.1899 64.4534 22.2892M61.3973 9.88021 61.402 9.87924 61.4522 9.87924C62.5621 9.61206 63.4835 9.4232 64.2163 9.31266 65.0577 9.18424 65.9616 9.0939 66.9275 9.0416 71.8473 8.76872 76.0878 9.89907 79.6126 12.3214L79.6264 12.2988 79.6283 12.3006 79.7275 12.3998C80.4421 12.8958 81.1191 13.4437 81.7532 14.0392 82.3789 14.6348 82.9584 15.2773 83.4866 15.961 86.0622 19.2832 87.3604 23.4611 87.3604 28.4408L87.3849 28.4408 87.3849 40.5401 87.3604 40.5401C87.3795 42.8857 86.9226 45.211 86.0174 47.3752 85.3177 49.0258 84.3606 50.5547 83.182 51.9053 83.6416 52.3477 84.0673 52.8241 84.4554 53.3303 86.4052 55.8689 87.3849 59.0354 87.3849 62.8006L87.3849 67.2041C87.5327 67.1862 87.6706 67.1682 87.796 67.154L94.9577 66.2919 94.9577 95.7202 89.2985 96.3991 89.2947 96.3991C87.7045 96.5918 86.6856 96.7173 86.2525 96.775 85.7285 96.8458 84.7056 96.9952 83.191 97.2208 77.8803 98.0122 72.7044 98.9732 67.6632 100.104 65.7751 100.551 63.8468 100.806 61.9074 100.866 59.7183 100.903 57.7865 100.568 56.1037 99.8338L56.106 99.8253C53.9961 98.9401 52.2548 97.3564 51.1741 95.3395 50.2396 93.6199 49.7732 91.6292 49.7746 89.3674L49.7496 89.3674 49.7496 72.8042C49.2463 72.9638 48.7448 73.125 48.2457 73.2877L48.2457 105.374 43.9644 106.886 43.9625 106.887 43.9366 106.887C42.5927 107.359 41.1346 107.89 39.5623 108.48 38.0654 109.042 36.6112 109.607 35.1993 110.175 27.7693 113.162 20.5237 116.589 13.5005 120.436L4.0371 125.625 4.0371 94.3565 7.34754 92.7009 7.34243 92.6906C7.43069 92.6426 7.77632 92.4545 8.334 92.1532 9.3841 91.5848 7.6271 92.5424 9.30287 91.6452 9.79393 91.3826 10.2907 91.1202 10.7931 90.8577L10.7931 59.8975 4.0106 63.6221 4.0106 32.4156 7.34947 30.6742 7.34327 30.6618C9.82933 29.2993 12.2404 28.035 14.5767 26.8694 16.9092 25.7068 19.3632 24.5427 21.9385 23.377 34.64 17.6536 47.8521 13.1388 61.4001 9.8925ZM48.2457 45.158C48.4827 45.0871 48.7207 45.0144 48.9614 44.9425L48.9614 43.1775C48.7207 43.254 48.4827 43.3316 48.2457 43.4081ZM43.8401 60.0543 43.8373 60.0552 41.8352 53.9944 35.424 53.9944 35.424 34.2976 39.7322 32.7904C43.1758 31.5837 46.5066 30.5007 49.7245 29.5419 50.5792 29.2879 51.2402 29.0914 51.7052 28.9583 51.9816 28.878 52.0906 28.8562 53.6669 28.4182L53.6923 28.4182 53.6933 28.4171 61.7831 26.2111 61.7831 54.5912 57.0744 55.9019C54.106 56.7293 50.9482 57.695 47.6016 58.7992 46.4425 59.1808 45.8271 59.3858 45.7686 59.4056 44.6457 59.7862 44.0433 59.993 43.9404 60.0279Z" fill="#FFFFFF" transform="matrix(1 0 0 1.00386 155 114)"/><path d="M63.7276 15.2876C69.2091 13.9712 73.6088 14.5529 76.8741 16.8317 80.1325 19.1132 81.7767 22.7511 81.7767 27.6381L81.7767 39.7373C81.7767 42.9037 80.6519 45.5376 78.4233 47.6784 76.1964 49.8287 72.7666 51.5767 68.1755 53.0924 73.1166 52.898 76.6366 53.6063 78.6896 55.0087 80.7417 56.4128 81.7767 58.7586 81.7767 61.9979L81.7767 73.7534C84.294 73.3652 86.8184 73.0176 89.3496 72.7108L89.3496 89.236C81.8614 90.1367 74.4233 91.4149 67.0641 93.0656 63.6577 93.8305 61.1262 93.8967 59.4581 93.1704 57.7917 92.4499 56.9622 90.9256 56.9622 88.5666L56.9622 63.4351C52.1398 64.7602 47.3649 66.2503 42.6376 67.9058L42.6376 100.049C31.8012 103.84 21.2946 108.514 11.2237 114.025L11.2237 97.4994C13.4624 96.2717 15.7229 95.0865 18.0052 93.9438L18.0052 48.4434C15.7245 49.5861 13.464 50.7709 11.2237 51.9979L11.2237 35.4687C27.7501 26.4142 45.4514 19.6864 63.7276 15.2876M42.6376 53.1926C47.1011 51.6287 51.6137 50.2113 56.1755 48.9401L56.1755 33.7755C51.6156 35.041 47.1029 36.4565 42.6376 38.0224Z" transform="matrix(1 0 0 1.00386 155 114)"/><path d="M143.833 19.3589 143.833 15.655C136.015 15.1856 128.177 15.1326 120.352 15.4964 118.673 15.5766 116.765 15.6947 114.628 15.8505L114.624 15.8505 114.624 19.541 115.451 19.4873 115.46 19.4863 122.271 19.0387 122.271 77.3711 116.261 77.7594C115.698 77.797 115.161 77.8335 114.648 77.8689L114.648 81.5774C122.627 81.0285 130.629 80.8888 138.622 81.159 140.521 81.2233 142.267 81.2994 143.858 81.3875L143.858 77.6762C143.287 77.6413 142.764 77.6116 142.29 77.5874L136.206 77.2766 136.206 18.9574 142.942 19.3116C143.244 19.3257 143.542 19.3428 143.833 19.3589M156.654 9.69889 156.654 33.2231 149.692 32.6102 149.685 32.6102C149.339 32.5808 149.146 32.563 149.026 32.5525L149.026 65.201C149.717 65.2521 150.308 65.3003 150.795 65.3417L156.629 65.8461 156.629 95.231 149.719 94.6388 149.645 94.6332C147.461 94.4463 145.555 94.3036 143.926 94.2054 141.816 94.0799 139.915 93.9882 138.221 93.9305 128.425 93.6 118.618 93.9208 108.865 94.891L101.829 95.5907 101.829 66.2106 107.62 65.6441 107.62 65.6411 108.71 65.5382C108.948 65.5146 108.86 65.526 109.449 65.4731L109.449 32.8056C109.248 32.8246 109.053 32.8424 108.865 32.8612L101.853 33.5554 101.853 4.19041 107.613 3.61628 107.686 3.60777C109.951 3.38294 111.964 3.20601 113.725 3.07697 115.502 2.94854 117.511 2.83177 119.752 2.72661 130.093 2.23439 140.455 2.42999 150.77 3.31216L156.654 3.82023Z" fill="#FFFFFF" transform="matrix(1 0 0 1.00386 155 114)"/><path d="M149.645 10.3449 149.645 26.8731C147.106 26.653 144.563 26.4767 142.017 26.3443L142.017 71.8494C144.562 71.9789 147.105 72.1538 149.645 72.3744L149.645 88.9009C135.665 87.6972 121.603 87.7899 107.641 89.1777L107.641 72.6504C110.175 72.3971 112.715 72.1878 115.262 72.0222L115.262 26.5199C112.719 26.688 110.178 26.898 107.641 27.1498L107.641 10.6235C121.603 9.23515 135.665 9.14187 149.645 10.3449" transform="matrix(1 0 0 1.00386 155 114)"/><path d="M224.135 96.4946 224.135 93.6672C223.432 93.3914 222.533 93.0428 221.428 92.6217L217.296 91.0445 217.296 31.8225 225.986 35.1496C227.967 35.9069 230.032 36.7348 232.183 37.6332L233.395 38.1478C234.811 38.7495 233.974 38.3831 234.58 38.6456L234.756 38.7457 234.756 38.7457 238.463 40.4748 238.463 53.2728C239.996 53.9727 241.533 54.696 243.072 55.4429L243.072 40.3444C226.865 31.891 209.614 25.6153 191.764 21.68 188.198 20.8897 184.467 20.1692 180.573 19.5184 179.195 19.287 177.809 19.0695 176.412 18.8659L176.412 35.3601C178.53 35.6557 180.637 35.9777 182.731 36.3263L182.731 23.3128 190.394 24.8643C191.959 25.1789 193.468 25.4998 194.923 25.8268 196.754 26.2376 198.266 26.5891 199.459 26.8816L204.344 28.0791 204.344 86.7581 197.134 84.9817 197.134 88.3513C205.489 90.3102 213.727 92.7463 221.804 95.6475 222.628 95.9431 223.405 96.2254 224.135 96.4946M236.956 89.3882 236.956 115.438 228.141 111.846 228.139 111.846 228.063 111.796C226.611 111.181 224.855 110.472 222.795 109.669 220.706 108.853 218.941 108.185 217.498 107.667 208.34 104.385 198.967 101.737 189.446 99.7412L184.361 98.6723 184.361 69.0739 191.522 70.5839 191.522 51.0007 187.939 50.3104 187.936 50.3104 187.886 50.2859C187.563 50.2206 186.701 50.0545 185.299 49.7872 185.031 49.7361 184.17 49.5823 182.706 49.3226 178.202 48.5228 173.725 47.8689 169.274 47.3611L163.591 46.7105 163.591 4.40858 170.702 5.21313 170.708 5.2141 170.732 5.2141C174.673 5.66359 178.655 6.22453 182.676 6.89693 186.499 7.53633 190.446 8.30756 194.518 9.21064 214.763 13.7039 234.367 20.9369 252.563 30.9103L255.894 32.7357 255.894 76.6638 246.452 71.5812 246.452 71.5793 246.402 71.5539C246.002 71.3357 245.23 70.9221 244.085 70.313 242.749 69.6038 241.966 69.191 241.747 69.0777 238.011 67.157 234.134 65.3229 230.12 63.5759L230.12 82.2914C230.909 82.6151 231.881 83.0212 233.024 83.503L236.956 85.1651Z" fill="#FFFFFF" transform="matrix(1 0 0 1.00386 155 114)"/><path d="M230.947 90.5923 230.947 107.116C218.111 101.705 204.783 97.5418 191.151 94.6842L191.151 78.1579C193.551 78.664 195.946 79.2105 198.335 79.7972L198.335 34.2957C195.414 33.58 192.484 32.9239 189.543 32.3279L189.543 45.2297C183.21 43.9454 176.83 42.9372 170.402 42.2049L170.402 12.7785C198.166 15.9449 225.323 24.261 249.883 37.723L249.883 67.1502C244.204 64.0367 238.394 61.1991 232.454 58.6378L232.454 45.734C229.695 44.5432 226.913 43.4112 224.108 42.338L224.108 87.8423C226.402 88.7177 228.683 89.6344 230.947 90.5923" transform="matrix(1 0 0 1.00386 155 114)"/><path d="M200.514 236.156 200.514 233.931 199.951 233.931 199.297 235.623 198.632 233.931 198.066 233.931 198.066 236.156 198.432 236.156 198.432 234.297 198.442 234.297 199.173 236.156 199.406 236.156 200.136 234.297 200.147 234.297 200.147 236.156 200.514 236.156M197.612 234.226 197.612 233.931 195.849 233.931 195.849 234.226 196.546 234.226 196.546 236.156 196.913 236.156 196.913 234.226Z" fill="#FFFFFF" fill-rule="evenodd" transform="matrix(1 0 0 1.00386 155 114)"/><path d="M195.441 198.311C196.804 200.399 197.348 202.866 197.584 204.634 197.833 206.478 197.769 209.105 197.662 211.275L197.648 211.563 197.798 211.807C197.99 212.118 198.17 212.425 198.316 212.712 199.29 214.578 199.839 216.636 199.92 218.741 200.017 222.509 198.701 227.594 194.763 230.798 194.2 231.256 193.68 231.657 193.217 231.993L192.922 232.359C192.045 234.305 191.004 236.173 189.811 237.943 187.058 241.994 182.172 247.314 174.544 248.989 172.431 249.452 161.13 253.414 157.045 254.856L157.6 251.511 152.975 252.736 153.184 245.207 152.552 244.983C152.117 244.831 151.672 244.658 151.22 244.467 147.93 243.061 143.794 240.326 141.65 235.141 141.002 233.573 140.525 232.318 140.134 231.235L139.98 230.805 132.599 228.493C125.91 227.402 119.646 228.878 117.584 230.854 115.824 232.542 114.988 233.941 114.605 234.739 114.482 234.989 114.38 235.248 114.297 235.512 114.271 235.631 114.256 235.752 114.252 235.873L114.229 236.134 114.007 237.938 113.355 243.52C111.609 242.666 108.374 241.077 106.955 240.34 105.059 239.356 102.659 238.064 101.282 237.106 98.0512 234.88 95.1433 232.219 92.6402 229.198 91.6242 227.951 90.6762 226.649 89.8005 225.299L89.0549 224.152 88.272 225.271C87.9923 225.662 87.7433 226.072 87.527 226.501 87.4032 226.751 87.3003 227.01 87.2191 227.276 87.1927 227.395 87.1772 227.514 87.1728 227.635L87.1507 227.896 86.9283 229.698 86.2762 235.284C84.53 234.43 81.2951 232.839 79.8763 232.102 77.9795 231.118 75.5793 229.828 74.2035 228.871 70.9733 226.644 68.0652 223.981 65.561 220.962 64.9482 220.212 64.3696 219.446 63.8254 218.679L63.3863 218.059 62.6934 218.37C61.2792 219 59.8314 219.551 58.3565 220.022 55.9205 220.815 46.0557 222.821 42.13 223.609L43.4804 219.998C43.513 219.91 46.5939 211.639 47.211 207.765 47.2951 207.238 47.3618 206.568 47.4122 205.801L47.4685 204.959 46.6345 204.828C43.2499 204.299 40.4094 203.317 38.6145 202.445 37.4562 201.878 35.8891 200.673 34.7663 199.767 33.9211 199.085 31.8199 197.241 30.6356 196.199L32.7373 194.614 34.3942 193.359C35.1558 192.782 36.0143 192.128 36.13 192.024 36.6003 191.587 37.0368 191.114 37.436 190.61 38.3386 189.472 39.0974 188.226 39.6959 186.903L40.2488 185.696 38.9248 185.599C38.0899 185.536 37.2651 185.442 36.5791 185.354 35.4429 185.209 32.7024 184.74 31.1814 184.47 32.3515 181.038 36.2106 169.547 39.1306 158.903 42.995 144.811 52.7782 134.064 58.5599 129.109 60.587 127.372 63.1827 124.713 65.5515 122.159L66.1971 121.464 65.4845 120.839C63.7882 119.345 62.2344 117.695 60.8436 115.913 57.7965 112.031 53.2777 104.905 52.1407 100.279L51.8858 99.2426 52.255 96.996C53.1824 92.651 56.3068 90.1068 60.0276 89.4118 61.3725 89.1889 62.7364 89.1015 64.0987 89.1511 65.2637 89.1728 66.6207 89.2512 68.1864 89.3353 73.845 89.6394 84.5768 89.7347 91.8785 88.865 99.2319 87.9887 111.882 84.8477 111.882 84.8477 116.759 83.6896 121.703 82.841 126.686 82.3064L127.408 82.2327 127.773 82.1959C130.96 81.9031 134.164 81.8241 137.362 81.9599 140.942 82.1147 145.187 83.2461 148.178 84.162 149.885 84.6852 151.371 85.1989 152.378 85.5598L152.685 85.6135C154.831 85.6249 158.216 86.1282 162.512 88.2615 164.017 89.0218 167.274 90.9993 170.007 92.717L170.291 92.8955 170.624 92.8493C171.509 92.7275 172.438 92.6122 173.333 92.5245 174.861 92.3743 177.115 92.2033 178.841 92.5452 182.576 93.2845 184.37 96.0431 184.967 98.3502 185.128 98.9893 185.228 99.6423 185.263 100.3L185.289 100.82 185.748 101.065C187.987 102.254 192.064 104.772 193.63 109.154 194.062 110.346 194.405 111.569 194.659 112.811L194.759 113.313 195.239 113.493C196.994 114.156 198.931 114.902 200.951 115.708 205.824 117.652 209.503 119.538 212.121 122.369 212.819 123.127 213.44 123.95 213.979 124.827 214.578 125.724 215.131 126.651 215.635 127.604 217.177 130.526 218.886 134.843 219.019 139.923 219.152 144.948 217.672 149.743 216.365 153.021 215.92 154.14 215.267 155.529 214.588 156.88L214.502 157.157C214.139 159.629 213.646 162.08 213.024 164.5 212.052 168.244 210.415 171.945 208.571 174.733 207.664 176.106 206.546 177.507 205.23 178.562 204.13 179.447 201.626 181.084 198.51 180.193 195.813 179.42 194.31 177.484 193.57 175.839 193.066 174.658 192.76 173.402 192.663 172.122 192.566 171.121 192.565 169.922 192.541 168.645L192.482 165.545 190.836 168.174C188.198 172.385 184.997 178.67 185.313 183.477 185.522 186.675 186.33 190.286 187.311 193.656L187.509 194.333 188.215 194.319C191.582 194.248 194.053 196.184 195.441 198.311" fill="#FFFFFF" transform="matrix(1 0 0 1.00386 155 114)"/><path d="M188.158 223.061C188.013 223.69 187.73 224.278 187.33 224.784 186.136 226.181 183.192 227.034 183.192 227.034 183.192 227.034 183.151 227.031 182.583 228.365 181.835 230.123 180.884 231.788 179.744 233.323 178.505 234.975 176.786 236.187 175.315 236.999L174.88 237.228C174.861 236.871 174.823 236.514 174.765 236.16 174.566 235.182 173.732 233.823 173.732 233.823 173.732 233.823 172.967 235.35 172.261 236.165 171.592 236.933 170.441 237.75 170.28 237.873 170.24 237.75 170.394 237.534 170.183 236.564 170.002 235.725 169.314 234.628 169.314 234.628 169.314 234.628 165.082 238.137 164.915 238.216 164.808 237.936 164.678 237.665 164.524 237.408 164.125 236.754 163.493 236.275 162.757 236.065 162.477 235.978 162.192 235.913 161.903 235.868 161.659 235.828 161.391 235.797 161.104 235.761 160.553 235.704 160.006 235.619 159.465 235.505 158.816 235.367 158.184 235.158 157.581 234.88 155.069 233.735 153.664 231.48 148.963 220.796 144.152 209.857 137.255 207.5 136.874 207.383L132.797 206.078C132.797 206.078 135.921 211.9 138.167 215.88 126.672 212.806 106.305 206.692 96.5996 199.673 87.3759 193.002 81.8532 181.284 81.8532 181.284 81.8532 181.284 79.8946 188.26 84.0887 196.783 86.4578 201.597 90.3142 205.406 92.6888 207.459 90.1089 207.747 87.4477 208.26 84.9601 209.141 80.3706 210.762 78.1362 212.865 77.2196 213.837 76.9815 213.64 76.7543 213.432 76.5393 213.209 75.7285 212.382 74.5825 210.962 73.3224 208.612 72.2563 206.596 71.4384 204.456 70.8867 202.243 70.5905 200.958 70.3696 199.658 70.2253 198.346L63.245 201.944C63.3376 201.124 63.4802 200.046 63.7021 198.764 64.3841 194.806 65.4583 190.928 66.9087 187.184 70.4297 178.173 72.6037 169.242 72.6037 169.242L55.2784 186.57C55.6089 185.164 55.9224 183.596 56.2327 181.915 56.9655 177.936 57.7059 173.24 58.6241 168.561 60.0195 161.44 63.7209 156.329 67.0881 152.991 68.7705 151.322 73.2808 146.699 73.2808 146.699 71.6581 146.982 70.0507 147.349 68.4649 147.795 65.828 148.536 62.3917 149.721 59.2229 151.492 58.7871 151.735 58.3682 152.002 57.9589 152.285 58.1856 151.661 58.4556 150.971 58.7749 150.233 60.088 147.211 62.2128 143.461 65.4785 140.437 71.9326 134.465 85.073 121.601 86.4618 120.241 89.3928 118.864 92.4392 117.746 95.5658 116.901 100.545 115.601 107.953 115.184 107.953 115.184L106.802 113.656C106.627 113.425 101.936 107.418 87.8076 107.09 77.2901 106.847 72.1745 104.506 69.7021 102.409 68.9442 101.766 66.1887 100.034 64.0813 98.7384 65.8392 98.8601 68.3301 99.1359 71.1767 99.3607 74.9069 99.6534 79.2132 99.8583 83.2462 99.5335 92.7337 98.7695 99.9775 97.5788 105.138 96.4766 104.649 97.1473 104.202 97.8471 103.798 98.5721 101.388 102.891 100.687 105.456 100.687 105.456 100.687 105.456 103.675 100.368 111.986 96.1443 114.128 95.0573 116.002 94.1828 117.614 93.4819L121.736 92.7246C121.595 92.9342 121.442 93.1582 121.274 93.398 120.425 94.6433 119.742 95.994 119.243 97.4163 119.243 97.4163 122.991 95.1885 129.22 93.1062 132.211 92.1061 135.906 91.7623 138.942 91.6744L142.609 92.0353C142.241 92.1287 141.854 92.228 141.431 92.3413 136.932 93.5434 135.579 95.7495 135.579 95.7495 135.579 95.7495 143.972 94.6945 148.385 94.9969 152.796 95.298 156.291 99.5553 158.18 101.792 160.911 105.032 166.39 106.269 166.39 106.269 166.39 106.269 164.704 104.419 162.234 101.519 161.663 100.856 161.165 100.132 160.752 99.3607 163.901 101.291 167.397 103.438 168.738 104.28 170.177 105.182 171.96 105.935 173.856 106.665 175.742 107.391 177.824 108.121 179.96 108.981 182.046 109.82 182.921 110.45 183.389 110.986 183.614 111.252 183.798 111.55 183.938 111.87 184.042 112.096 184.14 112.336 184.241 112.585 183.983 112.635 183.724 112.673 183.465 112.698 182.576 112.81 181.713 113.076 180.915 113.485 180.723 113.208 180.526 112.918 180.309 112.63 180.071 112.303 179.812 111.991 179.535 111.696 178.95 111.035 178.195 110.545 177.353 110.28 176.597 110.085 175.811 110.035 175.036 110.135 174.583 110.193 174.134 110.286 173.696 110.412 173.696 110.412 178.862 117.043 180.578 117.954 181.594 118.46 182.645 118.89 183.726 119.24 185.043 119.699 186.715 120.235 188.873 120.943 197.489 123.774 200.129 124.845 202.662 126.365 203.717 126.998 204.605 127.649 205.316 128.485 204.66 128.64 203.994 128.747 203.32 128.803 201.112 128.974 196.508 126.951 193.116 127.123 190.142 127.271 186.594 127.492 184.845 130.649 184.79 130.749 184.745 130.848 184.7 130.946 184.698 130.941 184.695 130.931 184.695 130.931 184.695 130.931 184.664 131.006 184.622 131.13 184.486 131.473 184.394 131.832 184.351 132.198 184.146 133.354 184.128 135.055 185.382 136.212 190.524 140.951 194.392 140.911 196.579 142.416 197.733 143.209 197.914 144.542 197.829 145.629 196.597 145.569 195.251 145.552 193.78 145.592 190.194 145.685 185.137 146.539 180.026 147.503 174.958 148.458 169.841 149.52 166.081 150.033 158.571 151.057 148.211 149.764 141.025 152.782 137.259 154.364 133.002 158.121 130.248 165.321 127.055 173.673 127.896 179.931 130.102 184.715 131.201 187.098 132.628 189.096 134.029 190.793 135.416 192.472 136.793 193.87 137.823 195.065 141.907 199.817 147.729 208.182 153.473 216.486 159.393 225.052 172.196 227.086 181.013 225.34 183.479 224.878 185.879 224.111 188.158 223.061Z" fill="#F76902" transform="matrix(1 0 0 1.00386 155 114)"/><path d="M153.473 216.486C147.729 208.182 141.907 199.817 137.823 195.065 136.793 193.87 135.416 192.472 134.029 190.793 132.628 189.096 131.201 187.098 130.102 184.715 127.896 179.931 127.055 173.673 130.248 165.321 133.002 158.121 137.259 154.364 141.025 152.782 148.211 149.764 158.571 151.057 166.081 150.033 169.841 149.52 174.958 148.458 180.026 147.503 182.655 147.007 185.27 146.541 187.68 146.193L187.677 146.191C188.008 146.143 188.328 146.102 188.652 146.058 188.852 146.032 189.056 146.002 189.253 145.976 189.628 145.929 189.989 145.89 190.351 145.85 190.522 145.832 190.702 145.808 190.871 145.791 191.251 145.753 191.615 145.723 191.978 145.695 192.109 145.685 192.252 145.67 192.385 145.659 192.869 145.626 193.337 145.603 193.78 145.592 194.45 145.573 195.087 145.57 195.706 145.574 195.908 145.576 196.099 145.582 196.294 145.585 196.693 145.593 197.083 145.603 197.462 145.618 197.582 145.623 197.714 145.623 197.829 145.629 197.914 144.542 197.733 143.209 196.579 142.416 194.392 140.911 190.524 140.951 185.382 136.212 184.128 135.055 184.146 133.354 184.351 132.198 184.392 131.862 184.475 131.532 184.596 131.215 184.044 130.666 183.538 130.073 183.08 129.443 180.78 126.212 180.362 125.595 180.362 125.595 180.362 125.595 180.395 129.313 181.868 132.553 183.344 135.792 186.426 139.844 186.426 139.844 186.426 139.844 180.544 134.581 177.968 131.657 178.568 132.026 178.929 132.272 178.929 132.272 178.929 132.272 175.262 126.168 169.127 124.768 168.294 124.56 167.438 124.463 166.579 124.48 166.562 124.48 166.136 124.494 166.075 124.498 158.706 124.75 155.152 129.397 150.701 131.432 147.735 132.752 144.701 133.912 141.612 134.909 140.09 135.262 138.524 135.392 136.964 135.295 133.036 135.028 132.883 134.73 132.883 134.73 132.883 134.73 136.473 133.023 137.976 130.757 138.885 129.36 139.394 127.742 139.448 126.077 139.482 126.029 139.503 125.999 139.503 125.999 139.503 125.999 134.72 127.006 132.061 126.224 129.402 125.444 120.212 118.829 112.955 118.892 102.619 118.982 99.8821 127.631 99.8821 127.631 99.8821 127.631 99.9543 127.525 100.091 127.352L99.9747 127.558C99.9747 127.558 103.713 124.875 107.017 124.695 110.321 124.517 113.654 125.239 113.654 125.239 113.654 125.239 103.92 129.441 98.4136 138.073 92.9085 146.707 92.0581 156.958 92.0581 156.958 92.0581 156.958 100.299 149.353 106.46 146.874 109.635 145.595 111.843 144.613 113.242 143.959 110.667 146.678 108.519 149.771 106.87 153.133 99.8821 167.423 99.8642 175.341 99.8642 175.341 99.8642 175.341 101.369 172.793 103.453 170.789 105.537 168.784 106.138 168.259 106.138 168.259 106.138 168.259 106.154 168.111 106.182 167.854 107.292 166.85 108.474 165.926 109.716 165.09 112.564 163.202 114.051 162.333 114.822 161.93 114.356 163.65 113.988 165.395 113.719 167.158 111.961 178.777 113.93 194.008 122.129 198.767 129.7 203.158 135.526 202.427 136.379 202.289 136.49 202.293 136.596 202.298 136.703 202.305 141.31 207.851 143.399 211.346 144.292 213.088 145.883 214.998 147.516 217.506 148.963 220.796 153.664 231.48 155.069 233.735 157.581 234.88 158.184 235.158 158.816 235.367 159.465 235.505 160.006 235.619 160.553 235.704 161.104 235.761 161.391 235.797 161.659 235.828 161.903 235.868 162.192 235.913 162.477 235.978 162.757 236.065 163.493 236.275 164.125 236.754 164.524 237.408 164.678 237.665 164.808 237.936 164.915 238.216 165.082 238.137 169.314 234.628 169.314 234.628 169.314 234.628 170.002 235.725 170.183 236.564 170.394 237.534 170.24 237.75 170.28 237.873 170.441 237.75 171.592 236.933 172.261 236.165 172.967 235.35 173.732 233.823 173.732 233.823 173.732 233.823 174.566 235.182 174.765 236.16 174.823 236.514 174.861 236.871 174.88 237.228L175.315 236.999C176.786 236.187 178.505 234.975 179.744 233.323 180.884 231.788 181.835 230.123 182.583 228.365 183.151 227.031 183.192 227.034 183.192 227.034 183.192 227.034 186.136 226.181 187.33 224.784 187.73 224.277 188.013 223.688 188.158 223.059 185.879 224.111 183.479 224.878 181.013 225.34 172.196 227.086 159.393 225.052 153.473 216.486Z" fill="#FFFFFF" transform="matrix(1 0 0 1.00386 155 114)"/><path d="M214.298 139.935C214.193 135.884 212.815 132.328 211.482 129.804 211.035 128.956 210.541 128.134 210.002 127.341 209.673 126.797 208.721 125.636 208.721 125.636 206.932 123.699 204.184 122.146 199.351 120.216 195.785 118.794 192.492 117.564 189.987 116.651 190.077 115.854 190.12 113.806 188.923 110.454 188.06 108.032 185.568 106.285 183.427 105.151 182.167 104.49 180.86 103.927 179.515 103.465 179.765 102.798 179.957 102.111 180.088 101.411 180.212 100.464 180.511 97.5758 177.919 97.0639 176.189 96.7211 171.839 97.3208 169.133 97.7571 166.339 95.9638 161.883 93.1911 160.061 92.2732 155.309 89.9122 152.28 90.1051 151.528 90.2061 150.98 89.9973 148.939 89.2371 146.381 88.4542 143.399 87.541 139.657 86.5778 136.764 86.4532 133.776 86.3257 130.782 86.3989 127.804 86.6723L126.742 86.7809C120.69 87.4211 112.461 89.2305 112.461 89.2305 112.461 89.2305 99.2868 92.4905 91.6137 93.4046 83.9474 94.3178 72.6802 94.229 66.7377 93.9098 65.2262 93.8286 63.9139 93.7513 62.7883 93.7304 61.7691 93.6888 60.7483 93.7471 59.7404 93.9051 57.8055 94.2669 56.3947 95.5463 55.9053 97.6042 55.8717 97.8808 55.8794 98.1608 55.9285 98.4352 56.7968 101.959 60.7566 108.423 63.7568 112.243 67.4294 116.924 71.1026 119.15 73.0352 120.082 72.2037 121.04 70.8684 122.554 69.3041 124.268 66.6367 127.185 63.3404 130.636 60.7293 132.874 55.317 137.512 46.2591 147.539 42.7343 160.392 39.1561 173.437 36.6247 180.735 36.6247 180.735 36.6247 180.735 41.281 181.49 46.1364 178.593 45.499 181.461 44.8837 184.075 44.4214 185.696 42.1352 193.699 37.3892 197.049 37.3892 197.049 37.3892 197.049 40.0316 199.28 45.7629 200.178 48.3429 200.58 50.2015 200.459 51.4857 200.195 51.4531 203.721 51.3371 207.329 51.0311 209.248 50.5796 212.029 49.8791 214.768 48.9379 217.425 48.9379 217.425 52.5836 216.714 55.4488 215.783 58.2748 214.866 61.7311 213.451 63.8886 211.492 65.1953 213.936 66.7267 216.253 68.4632 218.413 70.6844 221.089 73.2637 223.448 76.128 225.42 77.6624 226.463 79.2654 227.4 80.9263 228.227 80.9263 228.227 81.0877 227.046 81.1884 226.691 81.3531 226.138 81.5624 225.601 81.814 225.081 82.4723 223.707 83.6934 221.771 85.9372 219.62 86.9744 218.629 88.3466 217.816 89.9238 217.172 91.253 219.958 93.2338 223.543 95.853 226.746 98.0743 229.422 100.653 231.779 103.517 233.751 105.053 234.792 106.656 235.731 108.316 236.56 108.316 236.56 108.476 235.377 108.579 235.022 108.742 234.469 108.951 233.932 109.204 233.413 109.862 232.04 111.083 230.103 113.328 227.951 117.303 224.137 126.055 222.906 133.502 224.253 137.291 225.441 140.893 226.57 143.77 227.471 144.36 229.175 144.945 231.004 146.216 234.084 149.131 241.127 157.559 241.946 158.403 242.065L158.265 246.982 164.022 245.459 163.589 248.056C163.589 248.056 170.691 245.554 173.468 244.943 179.287 243.669 183.232 239.547 185.665 235.966 187.012 233.974 188.131 231.836 189.001 229.593 189.94 228.982 190.845 228.321 191.712 227.611 194.036 225.717 195.049 222.398 194.979 219.654 194.916 218.318 194.561 217.011 193.936 215.83 193.661 215.322 193.352 214.835 193.01 214.371 192.919 214.248 192.753 214.032 192.566 213.796 192.577 213.689 192.591 213.59 192.598 213.482 192.767 210.852 192.895 207.685 192.663 205.952 192.263 202.975 191.018 199.641 187.953 200.162 186.544 200.4 185.724 201.932 185.138 203.588 183.356 198.967 180.658 191.009 180.212 184.196 179.668 175.84 186.297 165.769 188.707 162.406 188.878 162.422 189.049 162.429 189.222 162.427 190.358 162.385 191.465 162.045 192.43 161.441 193.06 161.752 193.735 161.957 194.433 162.049 195.371 162.16 196.32 161.964 197.139 161.49L197.22 161.732C197.702 163.375 197.974 165.072 198.03 166.783 198.118 168.641 198.059 170.456 198.19 171.867 198.311 173.143 198.634 174.967 200.297 175.441 202.669 176.122 206.706 169.863 208.4 163.329 209.063 160.743 209.571 158.119 209.92 155.472 210.684 153.986 211.484 152.35 211.986 151.087 213.195 148.057 214.404 143.98 214.298 139.935ZM206.606 144.747C206.867 144.314 207.11 143.913 207.297 143.524 207.511 143.074 207.694 142.609 207.842 142.133 208.136 141.929 208.443 141.744 208.759 141.577 209.106 141.383 209.476 141.171 209.84 140.942 209.757 144.01 209.105 146.402 208.393 148.116 207.293 147.489 206.116 147.004 204.891 146.674 205.56 146.124 206.138 145.474 206.606 144.747ZM188.158 223.061C188.013 223.69 187.73 224.278 187.33 224.784 186.136 226.181 183.192 227.034 183.192 227.034 183.192 227.034 183.151 227.031 182.583 228.365 181.835 230.123 180.884 231.788 179.744 233.323 178.505 234.975 176.786 236.187 175.315 236.999L174.88 237.228C174.861 236.871 174.823 236.514 174.765 236.16 174.566 235.182 173.732 233.823 173.732 233.823 173.732 233.823 172.967 235.35 172.261 236.165 171.592 236.933 170.441 237.75 170.28 237.873 170.24 237.75 170.394 237.534 170.183 236.564 170.002 235.725 169.314 234.628 169.314 234.628 169.314 234.628 165.082 238.137 164.915 238.216 164.808 237.936 164.678 237.665 164.524 237.408 164.125 236.754 163.493 236.275 162.756 236.065 162.477 235.978 162.192 235.913 161.903 235.868 161.659 235.828 161.391 235.797 161.104 235.761 160.553 235.704 160.006 235.619 159.464 235.505 158.816 235.367 158.184 235.158 157.581 234.88 155.069 233.735 153.664 231.48 148.963 220.796 144.152 209.857 137.255 207.5 136.874 207.383L132.797 206.078C132.797 206.078 135.921 211.9 138.167 215.88 126.672 212.806 106.305 206.692 96.5996 199.673 87.3759 193.002 81.8532 181.284 81.8532 181.284 81.8532 181.284 79.8946 188.26 84.0885 196.783 86.4578 201.597 90.3142 205.406 92.6888 207.459 90.1089 207.747 87.4477 208.26 84.9601 209.141 80.3706 210.762 78.1362 212.865 77.2196 213.837 76.9815 213.64 76.7543 213.432 76.5393 213.209 75.7285 212.382 74.5825 210.962 73.3224 208.612 72.2563 206.596 71.4384 204.456 70.8867 202.243 70.5905 200.958 70.3696 199.658 70.2253 198.346L63.245 201.944C63.3376 201.124 63.4802 200.046 63.7021 198.764 64.3841 194.806 65.4583 190.928 66.9087 187.184 70.4297 178.173 72.6037 169.242 72.6037 169.242L55.2784 186.57C55.6089 185.164 55.9224 183.596 56.2327 181.915 56.9655 177.936 57.7059 173.24 58.6241 168.561 60.0195 161.44 63.7209 156.329 67.0881 152.991 68.7705 151.322 73.2808 146.699 73.2808 146.699 71.6581 146.982 70.0507 147.349 68.4649 147.795 65.828 148.536 62.3917 149.721 59.2229 151.492 58.7871 151.735 58.3682 152.002 57.9589 152.285 58.1856 151.661 58.4556 150.971 58.7749 150.233 60.088 147.211 62.2128 143.461 65.4785 140.437 71.9326 134.465 85.073 121.601 86.4618 120.241 89.3928 118.864 92.4392 117.746 95.5658 116.901 100.545 115.601 107.953 115.184 107.953 115.184L106.802 113.656C106.627 113.425 101.936 107.418 87.8076 107.09 77.2901 106.847 72.1745 104.506 69.7021 102.409 68.9442 101.766 66.1887 100.034 64.0813 98.7384 65.8392 98.8601 68.3301 99.1359 71.1767 99.3607 74.9069 99.6534 79.2132 99.8583 83.2462 99.5335 92.7337 98.7695 99.9775 97.5788 105.138 96.4766 104.649 97.1473 104.202 97.8471 103.798 98.5721 101.388 102.891 100.687 105.456 100.687 105.456 100.687 105.456 103.675 100.368 111.986 96.1443 114.128 95.0573 116.002 94.1828 117.614 93.4819L121.736 92.7246C121.595 92.9342 121.442 93.1582 121.274 93.398 120.425 94.6433 119.742 95.994 119.243 97.4163 119.243 97.4163 122.991 95.1885 129.22 93.1062 132.211 92.1061 135.906 91.7623 138.942 91.6744L142.609 92.0353C142.241 92.1287 141.854 92.228 141.431 92.3413 136.932 93.5434 135.579 95.7495 135.579 95.7495 135.579 95.7495 143.972 94.6945 148.385 94.9969 152.796 95.298 156.291 99.5553 158.18 101.792 160.911 105.032 166.39 106.269 166.39 106.269 166.39 106.269 164.704 104.419 162.234 101.519 161.663 100.856 161.165 100.132 160.752 99.3607 163.901 101.291 167.397 103.438 168.738 104.28 170.177 105.182 171.96 105.935 173.856 106.665 175.742 107.391 177.824 108.121 179.96 108.981 182.046 109.82 182.921 110.45 183.389 110.986 183.614 111.252 183.798 111.55 183.938 111.87 184.042 112.096 184.14 112.336 184.241 112.585 183.983 112.635 183.724 112.673 183.465 112.698 182.576 112.81 181.713 113.076 180.915 113.485 180.723 113.208 180.526 112.918 180.309 112.63 180.071 112.303 179.812 111.991 179.535 111.696 178.95 111.035 178.195 110.545 177.353 110.28 176.597 110.085 175.811 110.035 175.036 110.135 174.583 110.193 174.134 110.286 173.696 110.412 173.696 110.412 178.862 117.043 180.578 117.954 181.594 118.46 182.645 118.89 183.726 119.24 185.043 119.699 186.715 120.235 188.873 120.943 197.489 123.774 200.129 124.845 202.662 126.365 203.717 126.998 204.605 127.649 205.316 128.485 204.66 128.64 203.994 128.747 203.32 128.803 201.112 128.974 196.508 126.951 193.116 127.123 190.142 127.271 186.594 127.492 184.845 130.649 184.79 130.749 184.745 130.848 184.7 130.946 184.698 130.941 184.695 130.931 184.695 130.931 184.695 130.931 184.664 131.006 184.622 131.13 184.486 131.473 184.394 131.832 184.351 132.198 184.146 133.354 184.128 135.055 185.382 136.212 190.524 140.951 194.392 140.911 196.579 142.416 197.733 143.209 197.914 144.542 197.829 145.629 196.597 145.569 195.251 145.552 193.78 145.592 190.194 145.685 185.137 146.539 180.026 147.503 174.958 148.458 169.841 149.52 166.081 150.033 158.571 151.057 148.211 149.764 141.025 152.782 137.259 154.364 133.002 158.121 130.248 165.321 127.055 173.673 127.896 179.931 130.102 184.715 131.201 187.098 132.628 189.096 134.029 190.793 135.416 192.472 136.793 193.87 137.823 195.065 141.907 199.817 147.729 208.182 153.473 216.486 159.393 225.052 172.196 227.086 181.013 225.34 183.479 224.878 185.879 224.111 188.158 223.061ZM181.234 208.481 181.676 210.066C181.597 210.073 181.526 210.07 181.443 210.08 180.868 210.163 180.312 210.349 179.805 210.629 179.206 210.45 178.581 210.363 177.955 210.379 177.225 210.396 176.502 210.51 175.802 210.721 175.626 210.772 175.467 210.824 175.329 210.871 174.616 210.564 173.853 210.384 173.076 210.343 172.496 210.311 172.576 210.315 172.135 210.438 172.029 209.681 171.418 208.326 171.082 206.944 170.052 202.685 168.721 198.862 166.989 198.941 165.752 199 164.806 200.262 164.111 201.29 163.313 202.471 162.367 204.147 161.202 206.166 160.549 207.298 159.707 208.309 158.711 209.153 158.527 208.84 158.344 208.516 158.166 208.162 156.001 203.811 156.433 197.17 152.616 192.453 149.663 188.804 142.367 188.633 139.219 188.74 138.42 187.758 137.699 186.801 137.056 185.876 139.554 184.363 145.329 181.208 150.327 181.077 156.907 180.906 160.507 182.307 163.257 185.575 165.073 187.768 166.664 190.139 168.003 192.651 168.003 192.651 167.683 187.854 164.692 183.717 164.392 183.303 164.046 182.887 163.682 182.471 164.839 181.949 166.133 181.816 167.373 182.089 169.953 182.678 173.729 185.518 175.802 192.411 177.878 199.302 177.301 202.959 179.394 205.919 180.207 207.069 180.803 207.894 181.234 208.481Z" transform="matrix(1 0 0 1.00386 155 114)"/><path d="M179.535 111.696C179.812 111.991 180.071 112.303 180.309 112.63 180.526 112.918 180.723 113.208 180.915 113.485 181.713 113.076 182.576 112.81 183.465 112.698 183.724 112.673 183.985 112.635 184.241 112.585 184.14 112.336 184.042 112.096 183.938 111.87 183.798 111.55 183.614 111.252 183.389 110.986 182.999 110.572 182.545 110.225 182.042 109.96L179.344 111.508C179.406 111.571 179.475 111.631 179.535 111.696Z" fill="#FFFFFF" transform="matrix(1 0 0 1.00386 155 114)"/><path d="M208.348 129.714 208.417 129.846C208.417 129.846 206.235 132.328 204.472 132.465 202.246 132.639 197.936 130.97 195.229 130.804 192.523 130.638 187.837 131.453 187.951 134.001 187.449 133.651 187.131 133.093 187.088 132.483 186.976 129.936 191.662 129.119 194.366 129.286 197.073 129.452 201.385 131.121 203.609 130.947 205.713 130.783 208.148 129.939 208.397 129.851L208.348 129.714Z" fill="#FFFFFF" fill-rule="evenodd" transform="matrix(1 0 0 1.00386 155 114)"/><path d="M208.352 133.65C208.675 136.189 207.609 136.906 206.692 137.308 205.202 137.959 204.962 138.674 204.855 140.311 204.769 141.579 201.707 145.547 201.707 145.547 201.707 145.547 203.491 140.819 203.564 139.723 203.672 138.087 203.973 137.484 205.404 136.719 207.97 135.347 207.994 133.911 208.352 133.65Z" fill="#FFFFFF" transform="matrix(1 0 0 1.00386 155 114)"/><path d="M121.64 109.198C121.582 109.134 121.552 109.095 121.552 109.095 121.552 109.095 124.45 109.876 130.5 108.381 136.548 106.886 142.936 105.11 142.936 105.11L148.893 109.01C148.978 109.065 149.066 109.119 149.149 109.176L158.618 115.373C158.618 115.373 160.257 116.063 161.323 115.906 163.948 115.521 164.789 112.862 164.96 112.189 164.523 112.635 161.94 115.1 159.874 113.662 153.412 109.165 144.463 101.64 144.463 101.64 136.843 101.973 128.073 106.587 124.563 106.169 121.054 105.75 115.286 103.8 115.286 103.8 115.286 103.8 116.898 107.12 121.64 109.198Z" fill="#FFFFFF" transform="matrix(1 0 0 1.00386 155 114)"/><path d="M142.586 121.028C145.545 120.615 147.69 119.393 148.554 118.222 147.243 117.453 145.993 116.583 144.817 115.62 144.698 115.881 144.574 116.137 144.44 116.383 143.236 118.55 142.389 119.213 142.389 119.213 142.389 119.213 142.523 116.436 142.222 114.7 142.199 114.57 142.171 114.435 142.141 114.295 138.768 114.623 137.072 114.85 136.303 114.969 135.846 115.614 135.628 116.398 135.686 117.186 135.844 118.816 137.315 120.128 139.436 120.816 140.463 121.087 141.532 121.159 142.586 121.028Z" fill="#FFFFFF" transform="matrix(1 0 0 1.00386 155 114)"/><path d="M204.75 152.339C202.129 151.642 198.56 150.932 194.754 150.869 190.956 150.805 185.986 151.66 181.02 152.652 176.044 153.647 171.133 154.764 167.524 155.192 163.132 155.713 155.364 155.908 149.945 155.983 150.93 157.552 152.48 159.002 154.854 158.946 156.525 158.907 157.428 157.552 157.428 157.552 160.55 161.524 162.06 158.244 163.711 158.795 164.179 160.182 164.576 161.591 164.9 163.018 165.842 167.503 165.748 170.909 165.66 174.744 167.531 172.896 169.603 169.94 171.197 166.359 172.803 162.747 173.725 156.545 173.725 156.545 173.725 156.545 176.225 158.356 177.957 158.076 179.354 157.849 181.022 156.141 181.022 156.141 181.022 156.141 182.503 157.681 183.745 157.843 185.163 158.028 187.169 156.531 187.169 156.531 187.169 156.531 189.006 157.936 190.358 157.901 191.61 157.869 193.287 156.577 193.287 156.577 193.287 156.577 194.54 157.887 195.787 157.808 197.531 157.699 199.19 156.295 199.19 156.295L200.176 157.819C200.357 158.128 201.808 160.711 202.053 165.925 202.11 167.194 202.11 168.422 202.143 169.527 203.241 167.873 204.567 165.308 205.479 161.795 206.218 158.918 206.76 155.993 207.102 153.041 206.407 152.812 205.603 152.565 204.75 152.339Z" fill="#FFFFFF" transform="matrix(1 0 0 1.00386 155 114)"/><path d="M161.829 217.128C168.984 221.246 175.557 221.54 181 220.226 183.612 219.596 186.133 218.632 188.498 217.358 188.59 217.308 188.676 217.258 188.763 217.206 188.839 216.3 188.922 215.191 188.991 214.026 189.146 211.479 189.215 208.911 189.044 207.625 188.842 206.114 188.5 205.199 188.195 204.734 187.825 205.503 187.53 206.302 187.311 207.124 186.848 208.568 186.294 209.982 185.651 211.354 185.076 212.622 183.531 215.683 183.531 215.683 183.531 215.683 183.013 215.067 182.56 214.866 181.533 214.383 180.305 214.746 179.705 215.711 179.104 215.087 178.584 214.844 177.652 214.856 176.165 214.875 175.338 216.123 175.338 216.123 175.338 216.123 174.606 214.847 172.513 214.877 170.802 214.897 168.87 216.818 168.87 216.818 168.775 214.224 168.533 211.638 168.145 209.072 167.683 205.884 166.98 204.852 166.636 203.84 166.541 203.963 166.442 204.109 166.33 204.273 165.561 205.406 164.658 207.019 163.538 208.958 162.291 211.13 160.499 212.938 158.337 214.202 159.335 215.36 160.514 216.348 161.829 217.128Z" fill="#FFFFFF" transform="matrix(1 0 0 1.00386 155 114)"/><path d="M189.044 207.625C188.842 206.114 188.5 205.199 188.195 204.734 187.825 205.503 187.53 206.302 187.311 207.124 186.848 208.568 186.292 209.982 185.651 211.354 185.076 212.622 183.531 215.683 183.531 215.683 183.531 215.683 183.013 215.067 182.56 214.866 181.533 214.383 180.305 214.746 179.705 215.711 179.104 215.087 178.584 214.844 177.652 214.856 176.165 214.875 175.338 216.123 175.338 216.123 175.338 216.123 174.606 214.847 172.513 214.877 170.812 214.897 168.896 216.792 168.874 216.816 168.846 217.417 168.788 218.016 168.698 218.612 168.698 218.612 171.165 216.662 172.874 216.638 174.967 216.607 175.7 217.886 175.7 217.886 175.7 217.886 176.527 216.638 178.014 216.617 178.947 216.603 179.475 216.852 180.069 217.472 180.671 216.512 181.896 216.149 182.925 216.629 183.377 216.828 184.581 217.959 184.581 217.959 184.581 217.959 186.143 214.343 186.62 213.038 187.193 211.473 187.597 210.199 187.982 208.927 188.429 207.447 188.3 206.984 188.557 206.499 188.773 206.851 188.937 207.233 189.046 207.632 189.046 207.632 189.046 207.626 189.044 207.625Z" fill="#FFFFFF" transform="matrix(1 0 0 1.00386 155 114)"/><path d="M161.829 217.128C162.653 217.603 163.467 218.018 164.273 218.394 163.85 217.075 163.885 215.65 164.371 214.352 164.943 212.729 166.689 206.801 166.689 206.801 166.689 206.801 166.913 205.82 167.382 206.242 167.5 206.369 167.596 206.515 167.666 206.673 167.284 205.249 166.872 204.541 166.636 203.84 166.541 203.963 166.441 204.109 166.33 204.273 165.561 205.406 164.658 207.019 163.538 208.958 162.291 211.13 160.499 212.938 158.337 214.202 159.335 215.36 160.514 216.348 161.829 217.128Z" fill="#FFFFFF" transform="matrix(1 0 0 1.00386 155 114)"/><path d="M204.372 165.193C204.372 165.19 204.373 165.186 204.375 165.183L204.377 165.177C204.377 165.177 204.373 165.187 204.372 165.193Z" fill="#C5C7C9" transform="matrix(1 0 0 1.00386 155 114)"/><path d="M203.215 166.619C202.868 165.818 204.177 162.457 203.261 157.759 202.35 153.06 201.478 153.543 201.478 153.543 201.471 153.547 201.466 153.55 201.459 153.552L199.513 154.199C199.513 154.199 197.854 155.603 196.111 155.713 194.863 155.79 193.611 154.481 193.611 154.481 193.611 154.481 191.94 155.771 190.684 155.804 189.324 155.84 187.494 154.434 187.494 154.434 187.494 154.434 185.491 155.929 184.068 155.748 182.818 155.587 181.347 154.045 181.347 154.045 181.347 154.045 179.686 155.754 178.282 155.979 176.543 156.258 174.051 154.448 174.051 154.448 174.051 154.448 173.941 155.268 173.727 156.546 173.744 156.558 176.231 158.355 177.957 158.076 179.354 157.849 181.022 156.141 181.022 156.141 181.022 156.141 182.503 157.681 183.745 157.843 185.163 158.028 187.169 156.531 187.169 156.531 187.169 156.531 189.006 157.936 190.358 157.901 191.61 157.869 193.287 156.577 193.287 156.577 193.287 156.577 194.54 157.887 195.787 157.808 197.22 157.72 198.579 156.766 199.19 156.295L200.176 157.819C200.433 158.323 200.663 158.84 200.865 159.369L200.865 159.369C201.343 160.685 201.906 162.842 202.053 165.925 202.11 167.194 202.11 168.422 202.143 169.527 202.902 168.367 203.555 167.142 204.094 165.865 203.823 166.447 203.432 167.113 203.215 166.619Z" fill="#FFFFFF" transform="matrix(1 0 0 1.00386 155 114)"/><path d="M164.9 163.018C165.842 167.503 165.748 170.909 165.66 174.744 166.946 173.433 168.078 171.98 169.036 170.413 168.672 170.84 167.82 171.761 167.418 171.486 166.899 171.13 168.073 169.029 167.677 164.462 167.407 161.329 166.615 157.455 166.147 155.334 165.072 155.433 163.867 155.518 162.589 155.591 162.617 155.66 164.281 160.069 164.9 163.018Z" fill="#FFFFFF" transform="matrix(1 0 0 1.00386 155 114)"/><path d="M149.945 155.983C150.93 157.552 152.48 159.002 154.854 158.946 156.525 158.907 157.428 157.552 157.428 157.552 159.03 159.589 160.207 159.716 161.196 159.433 160.12 157.965 159.986 156.726 160.38 155.702 156.841 155.86 153.016 155.941 149.945 155.983Z" fill="#FFFFFF" transform="matrix(1 0 0 1.00386 155 114)"/><path d="M181.305 141.453C181.305 141.453 175.676 132.258 167.988 132.325 160.303 132.393 156.718 135.525 152.147 137.542 143.017 141.57 135.098 140.031 135.098 140.031 135.098 140.031 143.25 143.524 153.51 140.305 158.867 138.624 162.507 136.017 168.021 135.968 173.533 135.921 181.305 141.453 181.305 141.453Z" transform="matrix(1 0 0 1.00386 155 114)"/><path d="M180.855 144.449C180.855 144.449 175.966 141.456 171.15 141.499 166.331 141.541 160.02 144.849 154.076 145.422 149.872 145.829 144.088 144.987 144.088 144.987 144.088 144.987 149.326 147.289 156.352 147.229 163.38 147.166 166.625 145.181 172.353 144.828 178.08 144.474 180.855 144.449 180.855 144.449Z" transform="matrix(1 0 0 1.00386 155 114)"/><path d="M99.8821 127.631C99.8821 127.631 103.635 122.108 111.134 122.041 118.633 121.976 124.156 125.73 124.156 125.73 121.781 125.999 119.487 126.756 117.418 127.953 115.337 129.166 113.617 130.911 112.435 133.01 112.435 133.01 116.499 128.446 125.22 128.076 129.984 127.874 131.523 128.985 134.439 128.638 138.101 128.202 139.503 125.999 139.503 125.999 139.503 125.999 134.72 127.006 132.061 126.224 129.402 125.444 120.212 118.829 112.955 118.892 102.619 118.982 99.8821 127.631 99.8821 127.631Z" transform="matrix(1 0 0 1.00386 155 114)"/><path d="M99.8642 175.341C99.8642 175.341 101.369 172.793 103.453 170.789 105.537 168.784 106.138 168.259 106.138 168.259 106.138 168.259 106.768 161.285 109.895 153.193 112.749 145.805 119.072 139.031 119.072 139.031 119.072 139.031 111.618 143.428 106.87 153.133 99.8821 167.423 99.8642 175.341 99.8642 175.341Z" transform="matrix(1 0 0 1.00386 155 114)"/><path d="M123.477 143.999C123.477 143.999 115.76 153.671 113.719 167.158 111.961 178.777 113.93 194.008 122.129 198.767 130.329 203.522 136.497 202.269 136.497 202.269 136.497 202.269 128.03 201.733 121.46 190.937 110.244 172.504 123.477 143.999 123.477 143.999Z" transform="matrix(1 0 0 1.00386 155 114)"/><path d="M178.929 132.272C178.929 132.272 174.214 124.41 166.528 124.477 158.843 124.544 155.245 129.355 150.701 131.432 146.156 133.508 141.091 135.075 141.091 135.075 141.091 135.075 149.209 134.703 154.269 132.27 159.325 129.836 161.043 127.648 166.557 127.601 172.07 127.553 178.929 132.272 178.929 132.272Z" transform="matrix(1 0 0 1.00386 155 114)"/><path d="M179.744 233.323C180.692 232.047 181.511 230.677 182.186 229.237 179.601 230.558 174.597 232.698 169.683 232.452 162.637 232.095 158.084 229.355 149.883 218.758 146.576 214.487 143.784 211.907 141.627 210.349 143.932 212.352 146.682 215.607 148.963 220.796 153.664 231.48 155.069 233.735 157.581 234.88 158.184 235.158 158.816 235.367 159.465 235.505 160.006 235.619 160.553 235.704 161.104 235.761 161.391 235.797 161.659 235.828 161.903 235.868 162.192 235.913 162.477 235.978 162.757 236.065 163.493 236.275 164.125 236.754 164.524 237.408 164.678 237.665 164.808 237.936 164.915 238.216 165.082 238.137 169.314 234.628 169.314 234.628 169.314 234.628 170.002 235.725 170.183 236.564 170.394 237.534 170.24 237.75 170.28 237.873 170.441 237.75 171.592 236.933 172.261 236.165 172.967 235.35 173.732 233.823 173.732 233.823 173.732 233.823 174.566 235.182 174.765 236.16 174.823 236.514 174.861 236.871 174.88 237.228L175.315 236.999C176.786 236.187 178.505 234.975 179.744 233.323Z" fill="#FFFFFF" transform="matrix(1 0 0 1.00386 155 114)"/><path d="M206.606 144.747C206.867 144.314 207.11 143.913 207.297 143.524 207.511 143.074 207.694 142.609 207.842 142.133 208.136 141.929 208.443 141.744 208.759 141.577 209.106 141.383 209.476 141.171 209.84 140.942 209.757 144.01 209.105 146.402 208.393 148.116 207.293 147.489 206.116 147.004 204.891 146.674 205.56 146.124 206.138 145.474 206.606 144.747Z" fill="#FFFFFF" transform="matrix(1 0 0 1.00386 155 114)"/><path d="M181.234 208.481 181.676 210.066C181.597 210.073 181.526 210.07 181.443 210.08 180.868 210.163 180.312 210.349 179.805 210.629 179.206 210.45 178.581 210.363 177.955 210.379 177.225 210.396 176.502 210.51 175.802 210.721 175.626 210.772 175.467 210.824 175.329 210.871 174.616 210.564 173.853 210.384 173.076 210.343 172.496 210.311 172.576 210.315 172.135 210.438 172.029 209.681 171.418 208.326 171.082 206.944 170.052 202.685 168.721 198.862 166.989 198.941 165.752 199 164.806 200.262 164.111 201.29 163.313 202.471 162.367 204.147 161.202 206.166 160.549 207.298 159.707 208.309 158.711 209.153 158.527 208.84 158.344 208.516 158.166 208.162 156.001 203.811 156.433 197.17 152.616 192.453 149.663 188.804 142.367 188.633 139.219 188.74 138.42 187.758 137.699 186.801 137.056 185.876 139.554 184.363 145.329 181.208 150.327 181.077 156.907 180.906 160.507 182.307 163.257 185.575 165.073 187.768 166.664 190.139 168.003 192.651 168.003 192.651 167.683 187.854 164.692 183.717 164.392 183.303 164.046 182.887 163.682 182.471 164.839 181.949 166.133 181.816 167.373 182.089 169.953 182.678 173.729 185.518 175.802 192.411 177.878 199.302 177.301 202.959 179.394 205.919 180.207 207.069 180.803 207.894 181.234 208.481Z" fill="#F76902" transform="matrix(1 0 0 1.00386 155 114)"/><path d="M69.7021 102.409C72.1743 104.506 77.2901 106.847 87.8076 107.09 89.0388 107.118 90.1933 107.193 91.2847 107.299L98.0864 100.292C98.0864 100.292 85.7057 102.692 75.781 101.671 71.8349 101.272 67.9697 100.29 64.3116 98.7572 64.2356 98.7515 64.154 98.7431 64.0813 98.7384 66.1887 100.034 68.9442 101.766 69.7021 102.409Z" fill="#FFFFFF" transform="matrix(1 0 0 1.00386 155 114)"/><path d="M77.0767 103.946C73.0459 103.126 69.1677 101.683 65.5814 99.6686 67.3336 100.763 69.1157 101.911 69.7021 102.409 72.1745 104.506 77.2901 106.847 87.8076 107.09 89.0426 107.118 90.2014 107.193 91.296 107.3L96.2204 102.213C92.4387 103.385 84.2755 105.426 77.0767 103.946Z" fill="#FFFFFF" transform="matrix(1 0 0 1.00386 155 114)"/><path d="M164.996 112.028C164.996 112.028 164.333 115.458 161.322 115.901 160.257 116.057 158.617 115.367 158.617 115.367L149.142 109.167C149.068 109.114 148.99 109.066 148.913 109.017L142.937 105.104C142.937 105.104 136.548 106.88 130.498 108.375 124.448 109.87 121.553 109.088 121.553 109.088 121.553 109.088 122.724 110.756 127.858 111.749 128.225 111.82 128.607 111.88 128.999 111.933 128.486 112.062 127.977 112.195 127.44 112.312 121.014 113.722 114.396 111.486 114.396 111.486 116.293 112.886 118.394 113.987 120.624 114.75 122.977 115.52 125.458 115.825 127.927 115.647 127.927 115.647 128.01 116.891 125.141 117.962 122.271 119.033 121.054 118.624 121.054 118.624 121.054 118.624 122.634 120.328 127.02 119.749 128.126 119.583 129.202 119.257 130.214 118.781 131.306 122.226 136.525 124.472 142.535 123.9 146.579 123.515 150.024 121.947 151.975 119.869 153.341 120.418 154.761 120.822 156.211 121.074 164.591 122.484 166.085 118.706 166.28 116.905 166.561 114.28 164.996 112.028 164.996 112.028ZM135.686 117.18C135.627 116.392 135.846 115.607 136.304 114.963 137.076 114.844 138.764 114.617 142.138 114.289 142.168 114.428 142.199 114.565 142.221 114.693 142.524 116.429 142.389 119.208 142.389 119.208 142.389 119.208 143.236 118.544 144.438 116.378 144.572 116.134 144.688 115.871 144.806 115.614 145.985 116.577 147.238 117.447 148.552 118.216 147.689 119.387 145.545 120.608 142.586 121.022 141.531 121.153 140.461 121.081 139.434 120.81 137.315 120.121 135.843 118.808 135.686 117.18Z" fill="#231F20" fill-rule="evenodd" transform="matrix(1 0 0 1.00386 155 114)"/></g></svg>